# xmcd
#
# Track frame offsets:
#	150
#	18037
#	31180
#	50155
#	78516
#	96816
#	111173
#	131083
#	153210
#	181569
#	195950
#	212578
#	237925
#
# Disc length: 3420 seconds
# Revision: 0
# Processed by: cddbd v1.5.2PL0 Copyright (c) Steve Scherf et al.
# Submitted via: dBpowerAMP V12.0
#
DISCID=980d5a0d
DTITLE=Dan Granero - Time To Wake Up
DYEAR=2012
DGENRE=Blues rock
TTITLE0=Time To Wake Up
TTITLE1=Yes I Know
TTITLE2=Find You
TTITLE3=I Hear The Blues Calling My Name
TTITLE4=Can't Change (Who I Am)
TTITLE5=Long Time Coming
TTITLE6=The Road
TTITLE7=Come On Home
TTITLE8=My Baby
TTITLE9=Runaway
TTITLE10=Can't Stand To Lose
TTITLE11=Half The Man - (I Used To Be)
TTITLE12=Front Porch Blues
EXTD=
EXTT0=
EXTT1=
EXTT2=
EXTT3=
EXTT4=
EXTT5=
EXTT6=
EXTT7=
EXTT8=
EXTT9=
EXTT10=
EXTT11=
EXTT12=
PLAYORDER=
